<?xml version="1.0" encoding="utf-8"?>
<!-- Generator: Adobe Illustrator 24.0.1, SVG Export Plug-In . SVG Version: 6.00 Build 0)  -->
<svg version="1.1" id="Layer_1" xmlns="http://www.w3.org/2000/svg" xmlns:xlink="http://www.w3.org/1999/xlink" x="0px" y="0px"
	 viewBox="0 0 800 800" style="enable-background:new 0 0 800 800;" xml:space="preserve">
<style type="text/css">
	.st0{opacity:0.1;}
</style>
<g class="st0">
	<circle cx="22.3" cy="22.3" r="13.8"/>
	<circle cx="22.3" cy="106.3" r="13.8"/>
	<circle cx="22.3" cy="190.2" r="13.8"/>
	<circle cx="22.3" cy="274.1" r="13.8"/>
	<circle cx="22.3" cy="358" r="13.8"/>
	<circle cx="22.3" cy="442" r="13.8"/>
	<circle cx="22.3" cy="525.9" r="13.8"/>
	<circle cx="22.3" cy="609.8" r="13.8"/>
	<circle cx="22.3" cy="693.7" r="13.8"/>
	<circle cx="22.3" cy="777.7" r="13.8"/>
	<circle cx="106.3" cy="22.3" r="13.8"/>
	<circle cx="106.3" cy="106.3" r="13.8"/>
	<circle cx="106.3" cy="190.2" r="13.8"/>
	<circle cx="106.3" cy="274.1" r="13.8"/>
	<circle cx="106.3" cy="358" r="13.8"/>
	<circle cx="106.3" cy="442" r="13.8"/>
	<circle cx="106.3" cy="525.9" r="13.8"/>
	<circle cx="106.3" cy="609.8" r="13.8"/>
	<circle cx="106.3" cy="693.7" r="13.8"/>
	<circle cx="106.3" cy="777.7" r="13.8"/>
	<circle cx="190.2" cy="22.3" r="13.8"/>
	<circle cx="190.2" cy="106.3" r="13.8"/>
	<circle cx="190.2" cy="190.2" r="13.8"/>
	<circle cx="190.2" cy="274.1" r="13.8"/>
	<circle cx="190.2" cy="358" r="13.8"/>
	<circle cx="190.2" cy="442" r="13.8"/>
	<circle cx="190.2" cy="525.9" r="13.8"/>
	<circle cx="190.2" cy="609.8" r="13.8"/>
	<circle cx="190.2" cy="693.7" r="13.8"/>
	<circle cx="190.2" cy="777.7" r="13.8"/>
	<circle cx="274.1" cy="22.3" r="13.8"/>
	<circle cx="274.1" cy="106.3" r="13.8"/>
	<circle cx="274.1" cy="190.2" r="13.8"/>
	<circle cx="274.1" cy="274.1" r="13.8"/>
	<circle cx="274.1" cy="358" r="13.8"/>
	<circle cx="274.1" cy="442" r="13.8"/>
	<circle cx="274.1" cy="525.9" r="13.8"/>
	<circle cx="274.1" cy="609.8" r="13.8"/>
	<circle cx="274.1" cy="693.7" r="13.8"/>
	<circle cx="274.1" cy="777.7" r="13.8"/>
	<circle cx="358" cy="22.3" r="13.8"/>
	<circle cx="358" cy="106.3" r="13.8"/>
	<circle cx="358" cy="190.2" r="13.8"/>
	<circle cx="358" cy="274.1" r="13.8"/>
	<circle cx="358" cy="358" r="13.8"/>
	<circle cx="358" cy="442" r="13.8"/>
	<circle cx="358" cy="525.9" r="13.8"/>
	<circle cx="358" cy="609.8" r="13.8"/>
	<circle cx="358" cy="693.7" r="13.8"/>
	<circle cx="358" cy="777.7" r="13.8"/>
	<circle cx="442" cy="22.3" r="13.8"/>
	<circle cx="442" cy="106.3" r="13.8"/>
	<circle cx="442" cy="190.2" r="13.8"/>
	<circle cx="442" cy="274.1" r="13.8"/>
	<circle cx="442" cy="358" r="13.8"/>
	<circle cx="442" cy="442" r="13.8"/>
	<circle cx="442" cy="525.9" r="13.8"/>
	<circle cx="442" cy="609.8" r="13.8"/>
	<circle cx="442" cy="693.7" r="13.8"/>
	<circle cx="442" cy="777.7" r="13.8"/>
	<circle cx="525.9" cy="22.3" r="13.8"/>
	<circle cx="525.9" cy="106.3" r="13.8"/>
	<circle cx="525.9" cy="190.2" r="13.8"/>
	<circle cx="525.9" cy="274.1" r="13.8"/>
	<circle cx="525.9" cy="358" r="13.8"/>
	<circle cx="525.9" cy="442" r="13.8"/>
	<circle cx="525.9" cy="525.9" r="13.8"/>
	<circle cx="525.9" cy="609.8" r="13.8"/>
	<circle cx="525.9" cy="693.7" r="13.8"/>
	<circle cx="525.9" cy="777.7" r="13.8"/>
	<circle cx="609.8" cy="22.3" r="13.8"/>
	<circle cx="609.8" cy="106.3" r="13.8"/>
	<circle cx="609.8" cy="190.2" r="13.8"/>
	<circle cx="609.8" cy="274.1" r="13.8"/>
	<circle cx="609.8" cy="358" r="13.8"/>
	<circle cx="609.8" cy="442" r="13.8"/>
	<circle cx="609.8" cy="525.9" r="13.8"/>
	<circle cx="609.8" cy="609.8" r="13.8"/>
	<circle cx="609.8" cy="693.7" r="13.8"/>
	<circle cx="609.8" cy="777.7" r="13.8"/>
	<circle cx="693.7" cy="22.3" r="13.8"/>
	<circle cx="693.7" cy="106.3" r="13.8"/>
	<circle cx="693.7" cy="190.2" r="13.8"/>
	<circle cx="693.7" cy="274.1" r="13.8"/>
	<circle cx="693.7" cy="358" r="13.8"/>
	<circle cx="693.7" cy="442" r="13.8"/>
	<circle cx="693.7" cy="525.9" r="13.8"/>
	<circle cx="693.7" cy="609.8" r="13.8"/>
	<circle cx="693.7" cy="693.7" r="13.8"/>
	<circle cx="693.7" cy="777.7" r="13.8"/>
	<circle cx="777.7" cy="22.3" r="13.8"/>
	<circle cx="777.7" cy="106.3" r="13.8"/>
	<circle cx="777.7" cy="190.2" r="13.8"/>
	<circle cx="777.7" cy="274.1" r="13.8"/>
	<circle cx="777.7" cy="358" r="13.8"/>
	<circle cx="777.7" cy="442" r="13.8"/>
	<circle cx="777.7" cy="525.9" r="13.8"/>
	<circle cx="777.7" cy="609.8" r="13.8"/>
	<circle cx="777.7" cy="693.7" r="13.8"/>
	<circle cx="777.7" cy="777.7" r="13.8"/>
</g>
</svg>
