<?xml version="1.0" encoding="utf-8"?>
<!-- Generator: Adobe Illustrator 24.0.1, SVG Export Plug-In . SVG Version: 6.00 Build 0)  -->
<svg version="1.1" id="Layer_1" xmlns:svgjs="http://svgjs.com/svgjs"
	 xmlns="http://www.w3.org/2000/svg" xmlns:xlink="http://www.w3.org/1999/xlink" x="0px" y="0px" viewBox="0 0 512 147"
	 style="enable-background:new 0 0 512 147;" xml:space="preserve">
<style type="text/css">
	.st0{fill:#FFD800;}
</style>
<g>
	<g>
		<polygon class="st0" points="47.4,34.5 60,60.1 88.3,64.2 67.8,84.1 72.7,112.2 47.4,98.9 22.2,112.2 27,84.1 6.5,64.2 34.7,60.1 
					"/>
		<path class="st0" d="M72.7,118.7c-1,0-2.1-0.2-3-0.8l-22.3-11.7L25.2,118c-2.2,1.2-4.9,1-6.9-0.5c-2-1.5-3-3.9-2.6-6.4L20,86.4
			L2,68.9c-1.8-1.7-2.4-4.3-1.7-6.7c0.8-2.4,2.8-4.1,5.3-4.4l24.8-3.6l11.1-22.5c2.2-4.5,9.5-4.5,11.7,0l11.1,22.5l24.9,3.6
			c2.5,0.4,4.5,2.1,5.3,4.4c0.8,2.4,0.1,5-1.7,6.7l-18,17.5l4.2,24.8c0.4,2.4-0.6,4.9-2.6,6.4C75.4,118.3,74,118.7,72.7,118.7z
			 M47.4,92.4c1,0,2.1,0.2,3,0.8l13.6,7.2l-2.6-15.1c-0.4-2.1,0.3-4.3,1.9-5.8l11-10.7l-15.2-2.2c-2.1-0.3-4-1.6-4.9-3.6l-6.8-13.8
			L40.6,63c-1,1.9-2.8,3.3-4.9,3.6l-15.1,2.2l11,10.7c1.5,1.5,2.2,3.7,1.9,5.8l-2.6,15.1l13.5-7.1C45.3,92.7,46.3,92.4,47.4,92.4z"
			/>
		<polygon class="st0" points="151.7,34.5 164.3,60.1 192.6,64.2 172.1,84.1 177,112.2 151.7,98.9 126.4,112.2 131.3,84.1 
			110.8,64.2 139,60.1 		"/>
		<path class="st0" d="M177,118.7c-1,0-2.1-0.2-3-0.8l-22.3-11.7L129.5,118c-2.2,1.2-4.9,1-6.9-0.5c-2-1.5-3-3.9-2.6-6.4l4.2-24.8
			l-18-17.5c-1.8-1.7-2.4-4.3-1.7-6.7c0.8-2.4,2.8-4.1,5.3-4.4l24.8-3.6l11.1-22.5c2.2-4.5,9.5-4.5,11.7,0l11.1,22.5l24.9,3.6
			c2.5,0.4,4.5,2.1,5.3,4.4c0.8,2.4,0.1,5-1.7,6.7l-18,17.5l4.2,24.8c0.4,2.4-0.6,4.9-2.6,6.4C179.7,118.3,178.3,118.7,177,118.7z
			 M151.7,92.4c1,0,2.1,0.2,3,0.8l13.6,7.2l-2.6-15.1c-0.4-2.1,0.3-4.3,1.9-5.8l11-10.7l-15.2-2.2c-2.1-0.3-4-1.6-4.9-3.6l-6.8-13.8
			L144.9,63c-1,1.9-2.8,3.3-4.9,3.6l-15.1,2.2l11,10.7c1.5,1.5,2.2,3.7,1.9,5.8l-2.6,15.1l13.5-7.1
			C149.6,92.7,150.6,92.4,151.7,92.4z"/>
		<polygon class="st0" points="256,34.5 268.6,60.1 296.9,64.2 276.4,84.1 281.3,112.2 256,98.9 230.7,112.2 235.6,84.1 215.1,64.2 
			243.3,60.1 		"/>
		<path class="st0" d="M230.7,118.7c-1.3,0-2.7-0.4-3.8-1.2c-2-1.5-3-3.9-2.6-6.4l4.2-24.8l-18-17.5c-1.8-1.7-2.4-4.3-1.7-6.7
			c0.8-2.4,2.8-4.1,5.3-4.4l24.8-3.6l11.1-22.5c2.2-4.5,9.5-4.5,11.7,0L273,54.1l24.9,3.6c2.5,0.4,4.5,2.1,5.3,4.4
			c0.8,2.4,0.1,5-1.7,6.7l-18,17.5l4.2,24.8c0.4,2.4-0.6,4.9-2.6,6.4c-2,1.5-4.7,1.7-6.9,0.5L256,106.3L233.8,118
			C232.8,118.5,231.8,118.7,230.7,118.7z M256,92.4c1,0,2.1,0.2,3,0.8l13.6,7.2L270,85.2c-0.4-2.1,0.3-4.3,1.9-5.8l11-10.7
			l-15.2-2.2c-2.1-0.3-4-1.6-4.9-3.6L256,49.2L249.2,63c-1,1.9-2.8,3.3-4.9,3.6l-15.1,2.2l11,10.7c1.5,1.5,2.2,3.7,1.9,5.8
			l-2.6,15.1l13.5-7.1C253.9,92.7,254.9,92.4,256,92.4z"/>
		<polygon class="st0" points="360.3,34.5 372.9,60.1 401.2,64.2 380.7,84.1 385.5,112.2 360.3,98.9 335,112.2 339.9,84.1 
			319.4,64.2 347.6,60.1 		"/>
		<path class="st0" d="M335,118.7c-1.3,0-2.7-0.4-3.8-1.2c-2-1.5-3-3.9-2.6-6.4l4.2-24.8l-18-17.5c-1.8-1.7-2.4-4.3-1.7-6.7
			c0.8-2.4,2.8-4.1,5.3-4.4l24.8-3.6l11.1-22.5c2.2-4.5,9.5-4.5,11.7,0l11.1,22.5l24.9,3.6c2.5,0.4,4.5,2.1,5.3,4.4
			c0.8,2.4,0.1,5-1.7,6.7l-18,17.5l4.2,24.8c0.4,2.4-0.6,4.9-2.6,6.4c-2,1.5-4.7,1.7-6.9,0.5l-22.3-11.7L338.1,118
			C337.1,118.5,336.1,118.7,335,118.7z M360.3,92.4c1,0,2.1,0.2,3,0.8l13.6,7.2l-2.6-15.1c-0.4-2.1,0.3-4.3,1.9-5.8l11-10.7
			L372,66.5c-2.1-0.3-4-1.6-4.9-3.6l-6.8-13.8L353.5,63c-1,1.9-2.8,3.3-4.9,3.6l-15.1,2.2l11,10.7c1.5,1.5,2.2,3.7,1.9,5.8
			l-2.6,15.1l13.5-7.1C358.2,92.7,359.2,92.4,360.3,92.4z"/>
		<polygon class="st0" points="464.6,34.5 477.2,60.1 505.5,64.2 485,84.1 489.8,112.2 464.6,98.9 439.3,112.2 444.1,84.1 
			423.7,64.2 451.9,60.1 		"/>
		<path class="st0" d="M439.3,118.7c-1.3,0-2.7-0.4-3.8-1.2c-2-1.5-3-3.9-2.6-6.4l4.2-24.8l-18-17.5c-1.8-1.7-2.4-4.3-1.7-6.7
			c0.8-2.4,2.8-4.1,5.3-4.4l24.8-3.6l11.1-22.5c2.2-4.5,9.5-4.5,11.7,0l11.1,22.5l24.9,3.6c2.5,0.4,4.5,2.1,5.3,4.4
			c0.8,2.4,0.1,5-1.7,6.7l-18,17.5l4.2,24.8c0.4,2.4-0.6,4.9-2.6,6.4c-2,1.5-4.7,1.7-6.9,0.5l-22.3-11.7L442.4,118
			C441.4,118.5,440.4,118.7,439.3,118.7z M464.6,92.4c1,0,2.1,0.2,3,0.8l13.6,7.2l-2.6-15.1c-0.4-2.1,0.3-4.3,1.9-5.8l11-10.7
			l-15.2-2.2c-2.1-0.3-4-1.6-4.9-3.6l-6.8-13.8L457.8,63c-1,1.9-2.8,3.3-4.9,3.6l-15.1,2.2l11,10.7c1.5,1.5,2.2,3.7,1.9,5.8
			l-2.6,15.1l13.5-7.1C462.5,92.7,463.5,92.4,464.6,92.4z"/>
	</g>
</g>
</svg>
